<svg xmlns="http://www.w3.org/2000/svg" data-name="Layer 1" viewBox="0 0 100 125" x="0px" y="0px"><title>Artboard 27</title><path d="M99,8.7V77.76a4.47,4.47,0,0,1-4.47,4.47H83.33v4.88A4.84,4.84,0,0,1,78.48,92H68.63a4.84,4.84,0,0,1-4.84-4.84V82.23h-9a11,11,0,0,0-2.49-3.84l-7.83-7.83h40.4A2.54,2.54,0,0,0,87.39,68V18.44a2.54,2.54,0,0,0-2.54-2.54H23.71a2.54,2.54,0,0,0-2.54,2.54v18.5a23,23,0,0,0-4.47-.44h0a22.75,22.75,0,0,0-7.13,1.16V8.7A4.47,4.47,0,0,1,14,4.23h80.5A4.47,4.47,0,0,1,99,8.7ZM39.07,63.06a22.6,22.6,0,0,0-10.4-23.14V23.39H79.89V63.06ZM48.52,42.4a3.8,3.8,0,0,0,3.8,3.8h7.58a6.92,6.92,0,1,0,0-7.59H52.31A3.8,3.8,0,0,0,48.52,42.4ZM47.32,83.34a4.08,4.08,0,0,1,0,5.76l-.58.58-2.93,2.93-2,2a4.08,4.08,0,1,1-5.76-5.76l2-2-3.56-3.56-2,2a4.08,4.08,0,1,1-5.76-5.76l2-2L24.18,73a15.69,15.69,0,1,1,6.37-6.41ZM21.21,54.68a6.38,6.38,0,1,0,0,9A6.36,6.36,0,0,0,21.21,54.68Z"/><text x="0" y="115" fill="#000000" font-size="5px" font-weight="bold" font-family="'Helvetica Neue', Helvetica, Arial-Unicode, Arial, Sans-serif">Created by Gregor Cresnar</text><text x="0" y="120" fill="#000000" font-size="5px" font-weight="bold" font-family="'Helvetica Neue', Helvetica, Arial-Unicode, Arial, Sans-serif">from the Noun Project</text></svg>